# xmcd
#
# Track frame offsets: 
#        150
#        12874
#        31924
#        41324
#        55753
#        77944
#        95590
#        109100
#        124550
#        140670
#        160616
#
# Disc length: 2387 seconds
#
# Revision: 0
# Processed by: cddbd v1.5.2PL0 Copyright (c) Steve Scherf et al.
# Submitted via: ExactAudioCopy v0.95b4
#
DISCID=8109510b
DTITLE=Rebecca Roubion - A Fine Place to Start
DYEAR=2008
DGENRE=Pop
TTITLE0=Free
TTITLE1=Let it Hold
TTITLE2=Not a Thing Else (Pas D'autre Chose)
TTITLE3=Fool Over You
TTITLE4=Home
TTITLE5=Lifted Away
TTITLE6=Gone
TTITLE7=Do Not Know Why
TTITLE8=Glenrose
TTITLE9=Heart Like a Sponge
TTITLE10=In Heaven
EXTD=
EXTT0=
EXTT1=
EXTT2=
EXTT3=
EXTT4=
EXTT5=
EXTT6=
EXTT7=
EXTT8=
EXTT9=
EXTT10=
PLAYORDER=
